<svg width="277" height="388" viewBox="0 0 277 388" fill="none" xmlns="http://www.w3.org/2000/svg">
<path d="M166.103 114.093V78.0832H187.792V32.5347H166.103V0H111.878V32.5347H88.0193V78.0832H111.878V113.707C48.9777 125.94 0 182.168 0 249.521C0 325.787 62.228 387.835 138.494 387.835C214.761 387.835 276.538 325.789 276.538 249.521C276.538 182.897 229.003 127.132 166.103 114.093ZM138.676 333.608C92.3096 333.608 54.5867 295.886 54.5867 249.519C54.5867 203.151 92.3096 165.428 138.676 165.428C185.044 165.428 222.767 203.151 222.767 249.519C222.765 295.888 185.044 333.608 138.676 333.608Z" fill="black"/>
</svg>
