<svg width="24" height="25" viewBox="0 0 24 25" fill="none" xmlns="http://www.w3.org/2000/svg">
    <g clip-path="url(#clip0_228_324)">
        <path fill-rule="evenodd" clip-rule="evenodd"
              d="M2.3 5.51429C2.02386 5.51429 1.8 5.73815 1.8 6.01429V19.4143C1.8 19.6904 2.02386 19.9143 2.3 19.9143H3.7C3.97614 19.9143 4.2 19.6904 4.2 19.4143V6.01429C4.2 5.73815 3.97614 5.51429 3.7 5.51429H2.3ZM1.5 3.71429C0.671573 3.71429 0 4.38587 0 5.21429V20.2143C0 21.0427 0.671573 21.7143 1.5 21.7143H4.5C5.32843 21.7143 6 21.0427 6 20.2143V5.21429C6 4.38587 5.32843 3.71429 4.5 3.71429H1.5Z"
              fill="white"/>
        <path fill-rule="evenodd" clip-rule="evenodd"
              d="M9.8 5.51429C9.52386 5.51429 9.3 5.73815 9.3 6.01429V19.4143C9.3 19.6904 9.52386 19.9143 9.8 19.9143H11.2C11.4761 19.9143 11.7 19.6904 11.7 19.4143V6.01429C11.7 5.73815 11.4761 5.51429 11.2 5.51429H9.8ZM9 3.71429C8.17157 3.71429 7.5 4.38587 7.5 5.21429V20.2143C7.5 21.0427 8.17157 21.7143 9 21.7143H12C12.8284 21.7143 13.5 21.0427 13.5 20.2143V5.21429C13.5 4.38587 12.8284 3.71429 12 3.71429H9Z"
              fill="white"/>
        <path fill-rule="evenodd" clip-rule="evenodd"
              d="M16.9516 8.17612C16.6873 8.25617 16.538 8.53531 16.618 8.79959L19.7822 19.2463C19.8622 19.5106 20.1414 19.66 20.4056 19.5799L21.3627 19.2901C21.627 19.21 21.7763 18.9309 21.6963 18.6666L18.5321 8.21983C18.4521 7.95555 18.173 7.80619 17.9087 7.88624L16.9516 8.17612ZM15.4148 6.55187C14.6219 6.79202 14.1739 7.62943 14.414 8.42229L18.1579 20.7832C18.3981 21.576 19.2355 22.0241 20.0283 21.7839L22.8995 20.9143C23.6924 20.6742 24.1404 19.8367 23.9003 19.0439L20.1564 6.68301C19.9162 5.89015 19.0788 5.44209 18.286 5.68224L15.4148 6.55187Z"
              fill="white"/>
    </g>
    <defs>
        <clipPath id="clip0_228_324">
            <rect width="24" height="24" fill="white" transform="translate(0 0.714294)"/>
        </clipPath>
    </defs>
</svg>
