<svg width="28" height="36" viewBox="0 0 28 36" fill="none" xmlns="http://www.w3.org/2000/svg">
    <path d="M13.9999 0.5C6.80312 0.5 0.948242 6.35724 0.948242 13.5568C0.948242 24.2838 12.7008 34.7577 13.2013 35.1984C13.4294 35.3994 13.7146 35.5 13.9999 35.5C14.2852 35.5 14.5704 35.3995 14.7987 35.1984C15.2989 34.7578 27.0516 24.2839 27.0516 13.5568C27.0516 6.35724 21.1967 0.5 13.9999 0.5ZM13.9999 32.635C11.4015 30.1171 3.36524 21.672 3.36524 13.5568C3.36524 7.69006 8.13595 2.917 13.9999 2.917C19.8639 2.917 24.6346 7.69006 24.6346 13.5568C24.6346 21.6719 16.5983 30.117 13.9999 32.635Z"
          fill="white"/>
    <path d="M13.9996 7.47437C10.6678 7.47437 7.95728 10.2029 7.95728 13.5568C7.95728 16.9108 10.6678 19.6392 13.9996 19.6392C17.3315 19.6392 20.042 16.9108 20.042 13.5568C20.042 10.2029 17.3315 7.47437 13.9996 7.47437ZM13.9996 17.2222C12.0005 17.2222 10.3742 15.578 10.3742 13.5568C10.3742 11.5358 12.0005 9.89136 13.9996 9.89136C15.9988 9.89136 17.6251 11.5356 17.6251 13.5568C17.6251 15.578 15.9988 17.2222 13.9996 17.2222Z"
          fill="white"/>
</svg>
