<svg width="342" height="349" viewBox="0 0 342 349" fill="none" xmlns="http://www.w3.org/2000/svg">
    <path d="M38.9421 113.854C-14.0364 168.714 -12.636 256.324 42.2264 309.304C97.0889 362.284 185.02 360.941 237.998 306.08C284.808 257.606 288.52 182.991 251.744 130.525L293.917 86.8541L296.053 110.195L341.237 105.468L331.34 8.63449L232.77 0.378341L229.223 46.0057L255.642 48.4268L212.439 93.165C158.112 58.8757 85.1993 65.9528 38.9421 113.854ZM198.668 268.099C166.459 301.452 113.119 302.383 79.7644 270.173C46.4097 237.963 45.4787 184.622 77.6874 151.269C109.898 117.915 163.238 116.984 196.592 149.194C229.947 181.404 230.878 234.744 198.668 268.099Z"
          fill="white"/>
</svg>
